<?xml version="1.0" encoding="UTF-8"?>
<svg xmlns="http://www.w3.org/2000/svg" xmlns:xlink="http://www.w3.org/1999/xlink" width="453pt" height="226pt" viewBox="0 0 453 226" version="1.1">
<g id="surface1">
<path style="fill:none;stroke-width:8.50395;stroke-linecap:butt;stroke-linejoin:miter;stroke:rgb(0%,0%,0%);stroke-opacity:1;stroke-miterlimit:2.5;" d="M 875.625 427.1875 L 4266.132812 427.1875 " transform="matrix(0.1,0,0,-0.1,0,226)"/>
<path style="fill:none;stroke-width:8.50395;stroke-linecap:butt;stroke-linejoin:miter;stroke:rgb(0%,0%,0%);stroke-opacity:1;stroke-miterlimit:2.5;" d="M 875.625 427.1875 L 875.625 486.132812 " transform="matrix(0.1,0,0,-0.1,0,226)"/>
<path style="fill:none;stroke-width:8.50395;stroke-linecap:butt;stroke-linejoin:miter;stroke:rgb(0%,0%,0%);stroke-opacity:1;stroke-miterlimit:2.5;" d="M 733.90625 298.789062 L 797.65625 298.789062 " transform="matrix(0.1,0,0,-0.1,0,226)"/>
<path style="fill:none;stroke-width:8.50395;stroke-linecap:butt;stroke-linejoin:miter;stroke:rgb(0%,0%,0%);stroke-opacity:1;stroke-miterlimit:2.5;" d="M 864.84375 341.5625 L 829.414062 341.5625 L 826.015625 309.53125 L 829.414062 312.929688 L 840.195312 316.640625 L 850.664062 316.640625 L 861.445312 312.929688 L 868.554688 305.859375 L 871.953125 295.351562 L 871.953125 288.28125 L 868.554688 277.5 L 861.445312 270.429688 L 850.664062 267.03125 L 840.195312 267.03125 L 829.414062 270.429688 L 826.015625 274.101562 L 822.34375 281.210938 " transform="matrix(0.1,0,0,-0.1,0,226)"/>
<path style="fill:none;stroke-width:8.50395;stroke-linecap:butt;stroke-linejoin:miter;stroke:rgb(0%,0%,0%);stroke-opacity:1;stroke-miterlimit:2.5;" d="M 914.726562 341.5625 L 903.984375 337.890625 L 896.875 327.382812 L 893.476562 309.53125 L 893.476562 298.789062 L 896.875 281.210938 L 903.984375 270.429688 L 914.726562 267.03125 L 921.835938 267.03125 L 932.304688 270.429688 L 939.414062 281.210938 L 943.085938 298.789062 L 943.085938 309.53125 L 939.414062 327.382812 L 932.304688 337.890625 L 921.835938 341.5625 L 914.726562 341.5625 " transform="matrix(0.1,0,0,-0.1,0,226)"/>
<path style="fill:none;stroke-width:8.50395;stroke-linecap:butt;stroke-linejoin:miter;stroke:rgb(0%,0%,0%);stroke-opacity:1;stroke-miterlimit:2.5;" d="M 985.625 341.5625 L 974.84375 337.890625 L 967.734375 327.382812 L 964.335938 309.53125 L 964.335938 298.789062 L 967.734375 281.210938 L 974.84375 270.429688 L 985.625 267.03125 L 992.695312 267.03125 L 1003.164062 270.429688 L 1010.273438 281.210938 L 1013.945312 298.789062 L 1013.945312 309.53125 L 1010.273438 327.382812 L 1003.164062 337.890625 L 992.695312 341.5625 L 985.625 341.5625 " transform="matrix(0.1,0,0,-0.1,0,226)"/>
<path style="fill:none;stroke-width:8.50395;stroke-linecap:butt;stroke-linejoin:miter;stroke:rgb(0%,0%,0%);stroke-opacity:1;stroke-miterlimit:2.5;" d="M 1440.585938 427.1875 L 1440.585938 486.132812 " transform="matrix(0.1,0,0,-0.1,0,226)"/>
<path style="fill:none;stroke-width:8.50395;stroke-linecap:butt;stroke-linejoin:miter;stroke:rgb(0%,0%,0%);stroke-opacity:1;stroke-miterlimit:2.5;" d="M 1433.476562 341.5625 L 1423.007812 337.890625 L 1415.898438 327.382812 L 1412.226562 309.53125 L 1412.226562 298.789062 L 1415.898438 281.210938 L 1423.007812 270.429688 L 1433.476562 267.03125 L 1440.585938 267.03125 L 1451.328125 270.429688 L 1458.4375 281.210938 L 1461.835938 298.789062 L 1461.835938 309.53125 L 1458.4375 327.382812 L 1451.328125 337.890625 L 1440.585938 341.5625 L 1433.476562 341.5625 " transform="matrix(0.1,0,0,-0.1,0,226)"/>
<path style="fill:none;stroke-width:8.50395;stroke-linecap:butt;stroke-linejoin:miter;stroke:rgb(0%,0%,0%);stroke-opacity:1;stroke-miterlimit:2.5;" d="M 2005.78125 427.1875 L 2005.78125 486.132812 " transform="matrix(0.1,0,0,-0.1,0,226)"/>
<path style="fill:none;stroke-width:8.50395;stroke-linecap:butt;stroke-linejoin:miter;stroke:rgb(0%,0%,0%);stroke-opacity:1;stroke-miterlimit:2.5;" d="M 1949.101562 341.5625 L 1913.671875 341.5625 L 1910 309.53125 L 1913.671875 312.929688 L 1924.140625 316.640625 L 1934.921875 316.640625 L 1945.429688 312.929688 L 1952.5 305.859375 L 1956.171875 295.351562 L 1956.171875 288.28125 L 1952.5 277.5 L 1945.429688 270.429688 L 1934.921875 267.03125 L 1924.140625 267.03125 L 1913.671875 270.429688 L 1910 274.101562 L 1906.601562 281.210938 " transform="matrix(0.1,0,0,-0.1,0,226)"/>
<path style="fill:none;stroke-width:8.50395;stroke-linecap:butt;stroke-linejoin:miter;stroke:rgb(0%,0%,0%);stroke-opacity:1;stroke-miterlimit:2.5;" d="M 1998.710938 341.5625 L 1987.929688 337.890625 L 1980.859375 327.382812 L 1977.460938 309.53125 L 1977.460938 298.789062 L 1980.859375 281.210938 L 1987.929688 270.429688 L 1998.710938 267.03125 L 2005.78125 267.03125 L 2016.289062 270.429688 L 2023.359375 281.210938 L 2027.070312 298.789062 L 2027.070312 309.53125 L 2023.359375 327.382812 L 2016.289062 337.890625 L 2005.78125 341.5625 L 1998.710938 341.5625 " transform="matrix(0.1,0,0,-0.1,0,226)"/>
<path style="fill:none;stroke-width:8.50395;stroke-linecap:butt;stroke-linejoin:miter;stroke:rgb(0%,0%,0%);stroke-opacity:1;stroke-miterlimit:2.5;" d="M 2069.570312 341.5625 L 2058.828125 337.890625 L 2051.71875 327.382812 L 2048.320312 309.53125 L 2048.320312 298.789062 L 2051.71875 281.210938 L 2058.828125 270.429688 L 2069.570312 267.03125 L 2076.640625 267.03125 L 2087.148438 270.429688 L 2094.53125 281.210938 L 2097.929688 298.789062 L 2097.929688 309.53125 L 2094.53125 327.382812 L 2087.148438 337.890625 L 2076.640625 341.5625 L 2069.570312 341.5625 " transform="matrix(0.1,0,0,-0.1,0,226)"/>
<path style="fill:none;stroke-width:8.50395;stroke-linecap:butt;stroke-linejoin:miter;stroke:rgb(0%,0%,0%);stroke-opacity:1;stroke-miterlimit:2.5;" d="M 2570.742188 427.1875 L 2570.742188 486.132812 " transform="matrix(0.1,0,0,-0.1,0,226)"/>
<path style="fill:none;stroke-width:8.50395;stroke-linecap:butt;stroke-linejoin:miter;stroke:rgb(0%,0%,0%);stroke-opacity:1;stroke-miterlimit:2.5;" d="M 2446.875 327.382812 L 2453.945312 330.820312 L 2464.453125 341.5625 L 2464.453125 267.03125 " transform="matrix(0.1,0,0,-0.1,0,226)"/>
<path style="fill:none;stroke-width:8.50395;stroke-linecap:butt;stroke-linejoin:miter;stroke:rgb(0%,0%,0%);stroke-opacity:1;stroke-miterlimit:2.5;" d="M 2528.203125 341.5625 L 2517.734375 337.890625 L 2510.664062 327.382812 L 2506.953125 309.53125 L 2506.953125 298.789062 L 2510.664062 281.210938 L 2517.734375 270.429688 L 2528.203125 267.03125 L 2535.3125 267.03125 L 2546.09375 270.429688 L 2553.164062 281.210938 L 2556.5625 298.789062 L 2556.5625 309.53125 L 2553.164062 327.382812 L 2546.09375 337.890625 L 2535.3125 341.5625 L 2528.203125 341.5625 " transform="matrix(0.1,0,0,-0.1,0,226)"/>
<path style="fill:none;stroke-width:8.50395;stroke-linecap:butt;stroke-linejoin:miter;stroke:rgb(0%,0%,0%);stroke-opacity:1;stroke-miterlimit:2.5;" d="M 2599.101562 341.5625 L 2588.59375 337.890625 L 2581.523438 327.382812 L 2577.8125 309.53125 L 2577.8125 298.789062 L 2581.523438 281.210938 L 2588.59375 270.429688 L 2599.101562 267.03125 L 2606.171875 267.03125 L 2616.953125 270.429688 L 2624.023438 281.210938 L 2627.421875 298.789062 L 2627.421875 309.53125 L 2624.023438 327.382812 L 2616.953125 337.890625 L 2606.171875 341.5625 L 2599.101562 341.5625 " transform="matrix(0.1,0,0,-0.1,0,226)"/>
<path style="fill:none;stroke-width:8.50395;stroke-linecap:butt;stroke-linejoin:miter;stroke:rgb(0%,0%,0%);stroke-opacity:1;stroke-miterlimit:2.5;" d="M 2669.960938 341.5625 L 2659.453125 337.890625 L 2652.382812 327.382812 L 2648.710938 309.53125 L 2648.710938 298.789062 L 2652.382812 281.210938 L 2659.453125 270.429688 L 2669.960938 267.03125 L 2677.03125 267.03125 L 2687.8125 270.429688 L 2694.882812 281.210938 L 2698.59375 298.789062 L 2698.59375 309.53125 L 2694.882812 327.382812 L 2687.8125 337.890625 L 2677.03125 341.5625 L 2669.960938 341.5625 " transform="matrix(0.1,0,0,-0.1,0,226)"/>
<path style="fill:none;stroke-width:8.50395;stroke-linecap:butt;stroke-linejoin:miter;stroke:rgb(0%,0%,0%);stroke-opacity:1;stroke-miterlimit:2.5;" d="M 3135.976562 427.1875 L 3135.976562 486.132812 " transform="matrix(0.1,0,0,-0.1,0,226)"/>
<path style="fill:none;stroke-width:8.50395;stroke-linecap:butt;stroke-linejoin:miter;stroke:rgb(0%,0%,0%);stroke-opacity:1;stroke-miterlimit:2.5;" d="M 3011.835938 327.382812 L 3018.90625 330.820312 L 3029.6875 341.5625 L 3029.6875 267.03125 " transform="matrix(0.1,0,0,-0.1,0,226)"/>
<path style="fill:none;stroke-width:8.50395;stroke-linecap:butt;stroke-linejoin:miter;stroke:rgb(0%,0%,0%);stroke-opacity:1;stroke-miterlimit:2.5;" d="M 3114.726562 341.5625 L 3079.296875 341.5625 L 3075.585938 309.53125 L 3079.296875 312.929688 L 3089.765625 316.640625 L 3100.546875 316.640625 L 3111.015625 312.929688 L 3118.125 305.859375 L 3121.796875 295.351562 L 3121.796875 288.28125 L 3118.125 277.5 L 3111.015625 270.429688 L 3100.546875 267.03125 L 3089.765625 267.03125 L 3079.296875 270.429688 L 3075.585938 274.101562 L 3072.1875 281.210938 " transform="matrix(0.1,0,0,-0.1,0,226)"/>
<path style="fill:none;stroke-width:8.50395;stroke-linecap:butt;stroke-linejoin:miter;stroke:rgb(0%,0%,0%);stroke-opacity:1;stroke-miterlimit:2.5;" d="M 3164.335938 341.5625 L 3153.554688 337.890625 L 3146.445312 327.382812 L 3143.046875 309.53125 L 3143.046875 298.789062 L 3146.445312 281.210938 L 3153.554688 270.429688 L 3164.335938 267.03125 L 3171.40625 267.03125 L 3181.875 270.429688 L 3188.984375 281.210938 L 3192.65625 298.789062 L 3192.65625 309.53125 L 3188.984375 327.382812 L 3181.875 337.890625 L 3171.40625 341.5625 L 3164.335938 341.5625 " transform="matrix(0.1,0,0,-0.1,0,226)"/>
<path style="fill:none;stroke-width:8.50395;stroke-linecap:butt;stroke-linejoin:miter;stroke:rgb(0%,0%,0%);stroke-opacity:1;stroke-miterlimit:2.5;" d="M 3235.195312 341.5625 L 3224.414062 337.890625 L 3217.34375 327.382812 L 3213.945312 309.53125 L 3213.945312 298.789062 L 3217.34375 281.210938 L 3224.414062 270.429688 L 3235.195312 267.03125 L 3242.265625 267.03125 L 3252.773438 270.429688 L 3259.84375 281.210938 L 3263.515625 298.789062 L 3263.515625 309.53125 L 3259.84375 327.382812 L 3252.773438 337.890625 L 3242.265625 341.5625 L 3235.195312 341.5625 " transform="matrix(0.1,0,0,-0.1,0,226)"/>
<path style="fill:none;stroke-width:8.50395;stroke-linecap:butt;stroke-linejoin:miter;stroke:rgb(0%,0%,0%);stroke-opacity:1;stroke-miterlimit:2.5;" d="M 3700.9375 427.1875 L 3700.9375 486.132812 " transform="matrix(0.1,0,0,-0.1,0,226)"/>
<path style="fill:none;stroke-width:8.50395;stroke-linecap:butt;stroke-linejoin:miter;stroke:rgb(0%,0%,0%);stroke-opacity:1;stroke-miterlimit:2.5;" d="M 3569.6875 323.710938 L 3569.6875 327.382812 L 3573.359375 334.492188 L 3577.03125 337.890625 L 3584.140625 341.5625 L 3598.28125 341.5625 L 3605.390625 337.890625 L 3608.789062 334.492188 L 3612.460938 327.382812 L 3612.460938 320.039062 L 3608.789062 312.929688 L 3601.71875 302.460938 L 3566.289062 267.03125 L 3615.898438 267.03125 " transform="matrix(0.1,0,0,-0.1,0,226)"/>
<path style="fill:none;stroke-width:8.50395;stroke-linecap:butt;stroke-linejoin:miter;stroke:rgb(0%,0%,0%);stroke-opacity:1;stroke-miterlimit:2.5;" d="M 3658.398438 341.5625 L 3647.890625 337.890625 L 3640.820312 327.382812 L 3637.148438 309.53125 L 3637.148438 298.789062 L 3640.820312 281.210938 L 3647.890625 270.429688 L 3658.398438 267.03125 L 3665.507812 267.03125 L 3676.25 270.429688 L 3683.359375 281.210938 L 3686.757812 298.789062 L 3686.757812 309.53125 L 3683.359375 327.382812 L 3676.25 337.890625 L 3665.507812 341.5625 L 3658.398438 341.5625 " transform="matrix(0.1,0,0,-0.1,0,226)"/>
<path style="fill:none;stroke-width:8.50395;stroke-linecap:butt;stroke-linejoin:miter;stroke:rgb(0%,0%,0%);stroke-opacity:1;stroke-miterlimit:2.5;" d="M 3729.257812 341.5625 L 3718.789062 337.890625 L 3711.679688 327.382812 L 3708.007812 309.53125 L 3708.007812 298.789062 L 3711.679688 281.210938 L 3718.789062 270.429688 L 3729.257812 267.03125 L 3736.367188 267.03125 L 3747.109375 270.429688 L 3754.21875 281.210938 L 3757.617188 298.789062 L 3757.617188 309.53125 L 3754.21875 327.382812 L 3747.109375 337.890625 L 3736.367188 341.5625 L 3729.257812 341.5625 " transform="matrix(0.1,0,0,-0.1,0,226)"/>
<path style="fill:none;stroke-width:8.50395;stroke-linecap:butt;stroke-linejoin:miter;stroke:rgb(0%,0%,0%);stroke-opacity:1;stroke-miterlimit:2.5;" d="M 3800.117188 341.5625 L 3789.648438 337.890625 L 3782.578125 327.382812 L 3778.867188 309.53125 L 3778.867188 298.789062 L 3782.578125 281.210938 L 3789.648438 270.429688 L 3800.117188 267.03125 L 3807.226562 267.03125 L 3818.007812 270.429688 L 3825.078125 281.210938 L 3828.476562 298.789062 L 3828.476562 309.53125 L 3825.078125 327.382812 L 3818.007812 337.890625 L 3807.226562 341.5625 L 3800.117188 341.5625 " transform="matrix(0.1,0,0,-0.1,0,226)"/>
<path style="fill:none;stroke-width:8.50395;stroke-linecap:butt;stroke-linejoin:miter;stroke:rgb(0%,0%,0%);stroke-opacity:1;stroke-miterlimit:2.5;" d="M 4266.132812 427.1875 L 4266.132812 486.132812 " transform="matrix(0.1,0,0,-0.1,0,226)"/>
<path style="fill:none;stroke-width:8.50395;stroke-linecap:butt;stroke-linejoin:miter;stroke:rgb(0%,0%,0%);stroke-opacity:1;stroke-miterlimit:2.5;" d="M 4134.882812 323.710938 L 4134.882812 327.382812 L 4138.320312 334.492188 L 4141.992188 337.890625 L 4149.0625 341.5625 L 4163.242188 341.5625 L 4170.351562 337.890625 L 4174.023438 334.492188 L 4177.421875 327.382812 L 4177.421875 320.039062 L 4174.023438 312.929688 L 4166.640625 302.460938 L 4131.210938 267.03125 L 4181.09375 267.03125 " transform="matrix(0.1,0,0,-0.1,0,226)"/>
<path style="fill:none;stroke-width:8.50395;stroke-linecap:butt;stroke-linejoin:miter;stroke:rgb(0%,0%,0%);stroke-opacity:1;stroke-miterlimit:2.5;" d="M 4244.882812 341.5625 L 4209.453125 341.5625 L 4205.78125 309.53125 L 4209.453125 312.929688 L 4219.921875 316.640625 L 4230.703125 316.640625 L 4241.210938 312.929688 L 4248.28125 305.859375 L 4251.953125 295.351562 L 4251.953125 288.28125 L 4248.28125 277.5 L 4241.210938 270.429688 L 4230.703125 267.03125 L 4219.921875 267.03125 L 4209.453125 270.429688 L 4205.78125 274.101562 L 4202.382812 281.210938 " transform="matrix(0.1,0,0,-0.1,0,226)"/>
<path style="fill:none;stroke-width:8.50395;stroke-linecap:butt;stroke-linejoin:miter;stroke:rgb(0%,0%,0%);stroke-opacity:1;stroke-miterlimit:2.5;" d="M 4294.492188 341.5625 L 4283.710938 337.890625 L 4276.640625 327.382812 L 4273.242188 309.53125 L 4273.242188 298.789062 L 4276.640625 281.210938 L 4283.710938 270.429688 L 4294.492188 267.03125 L 4301.5625 267.03125 L 4312.070312 270.429688 L 4319.140625 281.210938 L 4322.851562 298.789062 L 4322.851562 309.53125 L 4319.140625 327.382812 L 4312.070312 337.890625 L 4301.5625 341.5625 L 4294.492188 341.5625 " transform="matrix(0.1,0,0,-0.1,0,226)"/>
<path style="fill:none;stroke-width:8.50395;stroke-linecap:butt;stroke-linejoin:miter;stroke:rgb(0%,0%,0%);stroke-opacity:1;stroke-miterlimit:2.5;" d="M 4365.351562 341.5625 L 4354.609375 337.890625 L 4347.5 327.382812 L 4344.101562 309.53125 L 4344.101562 298.789062 L 4347.5 281.210938 L 4354.609375 270.429688 L 4365.351562 267.03125 L 4372.460938 267.03125 L 4382.929688 270.429688 L 4390.039062 281.210938 L 4393.710938 298.789062 L 4393.710938 309.53125 L 4390.039062 327.382812 L 4382.929688 337.890625 L 4372.460938 341.5625 L 4365.351562 341.5625 " transform="matrix(0.1,0,0,-0.1,0,226)"/>
<path style="fill:none;stroke-width:8.50395;stroke-linecap:butt;stroke-linejoin:miter;stroke:rgb(0%,0%,0%);stroke-opacity:1;stroke-miterlimit:2.5;" d="M 988.710938 427.1875 L 988.710938 456.679688 " transform="matrix(0.1,0,0,-0.1,0,226)"/>
<path style="fill:none;stroke-width:8.50395;stroke-linecap:butt;stroke-linejoin:miter;stroke:rgb(0%,0%,0%);stroke-opacity:1;stroke-miterlimit:2.5;" d="M 1101.523438 427.1875 L 1101.523438 456.679688 " transform="matrix(0.1,0,0,-0.1,0,226)"/>
<path style="fill:none;stroke-width:8.50395;stroke-linecap:butt;stroke-linejoin:miter;stroke:rgb(0%,0%,0%);stroke-opacity:1;stroke-miterlimit:2.5;" d="M 1214.648438 427.1875 L 1214.648438 456.679688 " transform="matrix(0.1,0,0,-0.1,0,226)"/>
<path style="fill:none;stroke-width:8.50395;stroke-linecap:butt;stroke-linejoin:miter;stroke:rgb(0%,0%,0%);stroke-opacity:1;stroke-miterlimit:2.5;" d="M 1327.734375 427.1875 L 1327.734375 456.679688 " transform="matrix(0.1,0,0,-0.1,0,226)"/>
<path style="fill:none;stroke-width:8.50395;stroke-linecap:butt;stroke-linejoin:miter;stroke:rgb(0%,0%,0%);stroke-opacity:1;stroke-miterlimit:2.5;" d="M 1553.671875 427.1875 L 1553.671875 456.679688 " transform="matrix(0.1,0,0,-0.1,0,226)"/>
<path style="fill:none;stroke-width:8.50395;stroke-linecap:butt;stroke-linejoin:miter;stroke:rgb(0%,0%,0%);stroke-opacity:1;stroke-miterlimit:2.5;" d="M 1666.757812 427.1875 L 1666.757812 456.679688 " transform="matrix(0.1,0,0,-0.1,0,226)"/>
<path style="fill:none;stroke-width:8.50395;stroke-linecap:butt;stroke-linejoin:miter;stroke:rgb(0%,0%,0%);stroke-opacity:1;stroke-miterlimit:2.5;" d="M 1779.609375 427.1875 L 1779.609375 456.679688 " transform="matrix(0.1,0,0,-0.1,0,226)"/>
<path style="fill:none;stroke-width:8.50395;stroke-linecap:butt;stroke-linejoin:miter;stroke:rgb(0%,0%,0%);stroke-opacity:1;stroke-miterlimit:2.5;" d="M 1892.695312 427.1875 L 1892.695312 456.679688 " transform="matrix(0.1,0,0,-0.1,0,226)"/>
<path style="fill:none;stroke-width:8.50395;stroke-linecap:butt;stroke-linejoin:miter;stroke:rgb(0%,0%,0%);stroke-opacity:1;stroke-miterlimit:2.5;" d="M 2118.90625 427.1875 L 2118.90625 456.679688 " transform="matrix(0.1,0,0,-0.1,0,226)"/>
<path style="fill:none;stroke-width:8.50395;stroke-linecap:butt;stroke-linejoin:miter;stroke:rgb(0%,0%,0%);stroke-opacity:1;stroke-miterlimit:2.5;" d="M 2231.71875 427.1875 L 2231.71875 456.679688 " transform="matrix(0.1,0,0,-0.1,0,226)"/>
<path style="fill:none;stroke-width:8.50395;stroke-linecap:butt;stroke-linejoin:miter;stroke:rgb(0%,0%,0%);stroke-opacity:1;stroke-miterlimit:2.5;" d="M 2344.804688 427.1875 L 2344.804688 456.679688 " transform="matrix(0.1,0,0,-0.1,0,226)"/>
<path style="fill:none;stroke-width:8.50395;stroke-linecap:butt;stroke-linejoin:miter;stroke:rgb(0%,0%,0%);stroke-opacity:1;stroke-miterlimit:2.5;" d="M 2457.929688 427.1875 L 2457.929688 456.679688 " transform="matrix(0.1,0,0,-0.1,0,226)"/>
<path style="fill:none;stroke-width:8.50395;stroke-linecap:butt;stroke-linejoin:miter;stroke:rgb(0%,0%,0%);stroke-opacity:1;stroke-miterlimit:2.5;" d="M 2683.867188 427.1875 L 2683.867188 456.679688 " transform="matrix(0.1,0,0,-0.1,0,226)"/>
<path style="fill:none;stroke-width:8.50395;stroke-linecap:butt;stroke-linejoin:miter;stroke:rgb(0%,0%,0%);stroke-opacity:1;stroke-miterlimit:2.5;" d="M 2796.953125 427.1875 L 2796.953125 456.679688 " transform="matrix(0.1,0,0,-0.1,0,226)"/>
<path style="fill:none;stroke-width:8.50395;stroke-linecap:butt;stroke-linejoin:miter;stroke:rgb(0%,0%,0%);stroke-opacity:1;stroke-miterlimit:2.5;" d="M 2909.765625 427.1875 L 2909.765625 456.679688 " transform="matrix(0.1,0,0,-0.1,0,226)"/>
<path style="fill:none;stroke-width:8.50395;stroke-linecap:butt;stroke-linejoin:miter;stroke:rgb(0%,0%,0%);stroke-opacity:1;stroke-miterlimit:2.5;" d="M 3022.851562 427.1875 L 3022.851562 456.679688 " transform="matrix(0.1,0,0,-0.1,0,226)"/>
<path style="fill:none;stroke-width:8.50395;stroke-linecap:butt;stroke-linejoin:miter;stroke:rgb(0%,0%,0%);stroke-opacity:1;stroke-miterlimit:2.5;" d="M 3248.789062 427.1875 L 3248.789062 456.679688 " transform="matrix(0.1,0,0,-0.1,0,226)"/>
<path style="fill:none;stroke-width:8.50395;stroke-linecap:butt;stroke-linejoin:miter;stroke:rgb(0%,0%,0%);stroke-opacity:1;stroke-miterlimit:2.5;" d="M 3361.875 427.1875 L 3361.875 456.679688 " transform="matrix(0.1,0,0,-0.1,0,226)"/>
<path style="fill:none;stroke-width:8.50395;stroke-linecap:butt;stroke-linejoin:miter;stroke:rgb(0%,0%,0%);stroke-opacity:1;stroke-miterlimit:2.5;" d="M 3475 427.1875 L 3475 456.679688 " transform="matrix(0.1,0,0,-0.1,0,226)"/>
<path style="fill:none;stroke-width:8.50395;stroke-linecap:butt;stroke-linejoin:miter;stroke:rgb(0%,0%,0%);stroke-opacity:1;stroke-miterlimit:2.5;" d="M 3588.085938 427.1875 L 3588.085938 456.679688 " transform="matrix(0.1,0,0,-0.1,0,226)"/>
<path style="fill:none;stroke-width:8.50395;stroke-linecap:butt;stroke-linejoin:miter;stroke:rgb(0%,0%,0%);stroke-opacity:1;stroke-miterlimit:2.5;" d="M 3814.023438 427.1875 L 3814.023438 456.679688 " transform="matrix(0.1,0,0,-0.1,0,226)"/>
<path style="fill:none;stroke-width:8.50395;stroke-linecap:butt;stroke-linejoin:miter;stroke:rgb(0%,0%,0%);stroke-opacity:1;stroke-miterlimit:2.5;" d="M 3927.109375 427.1875 L 3927.109375 456.679688 " transform="matrix(0.1,0,0,-0.1,0,226)"/>
<path style="fill:none;stroke-width:8.50395;stroke-linecap:butt;stroke-linejoin:miter;stroke:rgb(0%,0%,0%);stroke-opacity:1;stroke-miterlimit:2.5;" d="M 4039.921875 427.1875 L 4039.921875 456.679688 " transform="matrix(0.1,0,0,-0.1,0,226)"/>
<path style="fill:none;stroke-width:8.50395;stroke-linecap:butt;stroke-linejoin:miter;stroke:rgb(0%,0%,0%);stroke-opacity:1;stroke-miterlimit:2.5;" d="M 4153.046875 427.1875 L 4153.046875 456.679688 " transform="matrix(0.1,0,0,-0.1,0,226)"/>
<path style="fill:none;stroke-width:8.50395;stroke-linecap:butt;stroke-linejoin:miter;stroke:rgb(0%,0%,0%);stroke-opacity:1;stroke-miterlimit:2.5;" d="M 2251.835938 202.695312 L 2251.835938 128.125 " transform="matrix(0.1,0,0,-0.1,0,226)"/>
<path style="fill:none;stroke-width:8.50395;stroke-linecap:butt;stroke-linejoin:miter;stroke:rgb(0%,0%,0%);stroke-opacity:1;stroke-miterlimit:2.5;" d="M 2251.835938 163.554688 L 2262.34375 174.335938 L 2269.414062 177.734375 L 2280.195312 177.734375 L 2287.265625 174.335938 L 2290.664062 163.554688 L 2290.664062 128.125 " transform="matrix(0.1,0,0,-0.1,0,226)"/>
<path style="fill:none;stroke-width:8.50395;stroke-linecap:butt;stroke-linejoin:miter;stroke:rgb(0%,0%,0%);stroke-opacity:1;stroke-miterlimit:2.5;" d="M 2315.625 156.484375 L 2358.164062 156.484375 L 2358.164062 163.554688 L 2354.453125 170.664062 L 2351.054688 174.335938 L 2343.984375 177.734375 L 2333.203125 177.734375 L 2326.09375 174.335938 L 2319.023438 167.226562 L 2315.625 156.484375 L 2315.625 149.375 L 2319.023438 138.90625 L 2326.09375 131.796875 L 2333.203125 128.125 L 2343.984375 128.125 L 2351.054688 131.796875 L 2358.164062 138.90625 " transform="matrix(0.1,0,0,-0.1,0,226)"/>
<path style="fill:none;stroke-width:8.50395;stroke-linecap:butt;stroke-linejoin:miter;stroke:rgb(0%,0%,0%);stroke-opacity:1;stroke-miterlimit:2.5;" d="M 2379.414062 202.695312 L 2383.085938 198.984375 L 2386.484375 202.695312 L 2383.085938 206.09375 L 2379.414062 202.695312 " transform="matrix(0.1,0,0,-0.1,0,226)"/>
<path style="fill:none;stroke-width:8.50395;stroke-linecap:butt;stroke-linejoin:miter;stroke:rgb(0%,0%,0%);stroke-opacity:1;stroke-miterlimit:2.5;" d="M 2383.085938 177.734375 L 2383.085938 128.125 " transform="matrix(0.1,0,0,-0.1,0,226)"/>
<path style="fill:none;stroke-width:8.50395;stroke-linecap:butt;stroke-linejoin:miter;stroke:rgb(0%,0%,0%);stroke-opacity:1;stroke-miterlimit:2.5;" d="M 2450.273438 177.734375 L 2450.273438 117.65625 L 2446.875 106.875 L 2443.203125 103.476562 L 2436.09375 99.765625 L 2425.625 99.765625 L 2418.515625 103.476562 " transform="matrix(0.1,0,0,-0.1,0,226)"/>
<path style="fill:none;stroke-width:8.50395;stroke-linecap:butt;stroke-linejoin:miter;stroke:rgb(0%,0%,0%);stroke-opacity:1;stroke-miterlimit:2.5;" d="M 2450.273438 167.226562 L 2443.164062 174.335938 L 2436.09375 177.734375 L 2425.625 177.734375 L 2418.515625 174.335938 L 2411.445312 167.226562 L 2407.734375 156.484375 L 2407.734375 149.375 L 2411.445312 138.90625 L 2418.515625 131.796875 L 2425.625 128.125 L 2436.09375 128.125 L 2443.164062 131.796875 L 2450.273438 138.90625 " transform="matrix(0.1,0,0,-0.1,0,226)"/>
<path style="fill:none;stroke-width:8.50395;stroke-linecap:butt;stroke-linejoin:miter;stroke:rgb(0%,0%,0%);stroke-opacity:1;stroke-miterlimit:2.5;" d="M 2478.632812 202.695312 L 2478.632812 128.125 " transform="matrix(0.1,0,0,-0.1,0,226)"/>
<path style="fill:none;stroke-width:8.50395;stroke-linecap:butt;stroke-linejoin:miter;stroke:rgb(0%,0%,0%);stroke-opacity:1;stroke-miterlimit:2.5;" d="M 2478.632812 163.554688 L 2489.375 174.335938 L 2496.484375 177.734375 L 2506.953125 177.734375 L 2514.0625 174.335938 L 2517.734375 163.554688 L 2517.734375 128.125 " transform="matrix(0.1,0,0,-0.1,0,226)"/>
<path style="fill:none;stroke-width:8.50395;stroke-linecap:butt;stroke-linejoin:miter;stroke:rgb(0%,0%,0%);stroke-opacity:1;stroke-miterlimit:2.5;" d="M 2549.492188 202.695312 L 2549.492188 142.304688 L 2553.164062 131.796875 L 2560.273438 128.125 L 2567.34375 128.125 " transform="matrix(0.1,0,0,-0.1,0,226)"/>
<path style="fill:none;stroke-width:8.50395;stroke-linecap:butt;stroke-linejoin:miter;stroke:rgb(0%,0%,0%);stroke-opacity:1;stroke-miterlimit:2.5;" d="M 2538.984375 177.734375 L 2563.671875 177.734375 " transform="matrix(0.1,0,0,-0.1,0,226)"/>
<path style="fill:none;stroke-width:8.50395;stroke-linecap:butt;stroke-linejoin:miter;stroke:rgb(0%,0%,0%);stroke-opacity:1;stroke-miterlimit:2.5;" d="M 2645.3125 216.835938 L 2645.3125 99.765625 " transform="matrix(0.1,0,0,-0.1,0,226)"/>
<path style="fill:none;stroke-width:8.50395;stroke-linecap:butt;stroke-linejoin:miter;stroke:rgb(0%,0%,0%);stroke-opacity:1;stroke-miterlimit:2.5;" d="M 2648.710938 216.835938 L 2648.710938 99.765625 " transform="matrix(0.1,0,0,-0.1,0,226)"/>
<path style="fill:none;stroke-width:8.50395;stroke-linecap:butt;stroke-linejoin:miter;stroke:rgb(0%,0%,0%);stroke-opacity:1;stroke-miterlimit:2.5;" d="M 2645.3125 216.835938 L 2669.960938 216.835938 " transform="matrix(0.1,0,0,-0.1,0,226)"/>
<path style="fill:none;stroke-width:8.50395;stroke-linecap:butt;stroke-linejoin:miter;stroke:rgb(0%,0%,0%);stroke-opacity:1;stroke-miterlimit:2.5;" d="M 2645.3125 99.765625 L 2669.960938 99.765625 " transform="matrix(0.1,0,0,-0.1,0,226)"/>
<path style="fill:none;stroke-width:8.50395;stroke-linecap:butt;stroke-linejoin:miter;stroke:rgb(0%,0%,0%);stroke-opacity:1;stroke-miterlimit:2.5;" d="M 2694.882812 202.695312 L 2694.882812 128.125 " transform="matrix(0.1,0,0,-0.1,0,226)"/>
<path style="fill:none;stroke-width:8.50395;stroke-linecap:butt;stroke-linejoin:miter;stroke:rgb(0%,0%,0%);stroke-opacity:1;stroke-miterlimit:2.5;" d="M 2730.3125 177.734375 L 2694.882812 142.304688 " transform="matrix(0.1,0,0,-0.1,0,226)"/>
<path style="fill:none;stroke-width:8.50395;stroke-linecap:butt;stroke-linejoin:miter;stroke:rgb(0%,0%,0%);stroke-opacity:1;stroke-miterlimit:2.5;" d="M 2709.0625 156.484375 L 2734.023438 128.125 " transform="matrix(0.1,0,0,-0.1,0,226)"/>
<path style="fill:none;stroke-width:8.50395;stroke-linecap:butt;stroke-linejoin:miter;stroke:rgb(0%,0%,0%);stroke-opacity:1;stroke-miterlimit:2.5;" d="M 2755.273438 177.734375 L 2755.273438 128.125 " transform="matrix(0.1,0,0,-0.1,0,226)"/>
<path style="fill:none;stroke-width:8.50395;stroke-linecap:butt;stroke-linejoin:miter;stroke:rgb(0%,0%,0%);stroke-opacity:1;stroke-miterlimit:2.5;" d="M 2755.273438 163.554688 L 2765.78125 174.335938 L 2772.851562 177.734375 L 2783.632812 177.734375 L 2790.703125 174.335938 L 2794.101562 163.554688 L 2794.101562 128.125 " transform="matrix(0.1,0,0,-0.1,0,226)"/>
<path style="fill:none;stroke-width:8.50395;stroke-linecap:butt;stroke-linejoin:miter;stroke:rgb(0%,0%,0%);stroke-opacity:1;stroke-miterlimit:2.5;" d="M 2794.101562 163.554688 L 2804.882812 174.335938 L 2811.953125 177.734375 L 2822.460938 177.734375 L 2829.53125 174.335938 L 2833.242188 163.554688 L 2833.242188 128.125 " transform="matrix(0.1,0,0,-0.1,0,226)"/>
<path style="fill:none;stroke-width:8.50395;stroke-linecap:butt;stroke-linejoin:miter;stroke:rgb(0%,0%,0%);stroke-opacity:1;stroke-miterlimit:2.5;" d="M 2879.140625 216.835938 L 2879.140625 99.765625 " transform="matrix(0.1,0,0,-0.1,0,226)"/>
<path style="fill:none;stroke-width:8.50395;stroke-linecap:butt;stroke-linejoin:miter;stroke:rgb(0%,0%,0%);stroke-opacity:1;stroke-miterlimit:2.5;" d="M 2882.851562 216.835938 L 2882.851562 99.765625 " transform="matrix(0.1,0,0,-0.1,0,226)"/>
<path style="fill:none;stroke-width:8.50395;stroke-linecap:butt;stroke-linejoin:miter;stroke:rgb(0%,0%,0%);stroke-opacity:1;stroke-miterlimit:2.5;" d="M 2857.890625 216.835938 L 2882.851562 216.835938 " transform="matrix(0.1,0,0,-0.1,0,226)"/>
<path style="fill:none;stroke-width:8.50395;stroke-linecap:butt;stroke-linejoin:miter;stroke:rgb(0%,0%,0%);stroke-opacity:1;stroke-miterlimit:2.5;" d="M 2857.890625 99.765625 L 2882.851562 99.765625 " transform="matrix(0.1,0,0,-0.1,0,226)"/>
<path style="fill:none;stroke-width:8.50395;stroke-linecap:butt;stroke-linejoin:miter;stroke:rgb(0%,0%,0%);stroke-opacity:1;stroke-miterlimit:2.5;" d="M 875.625 2160.859375 L 4266.132812 2160.859375 " transform="matrix(0.1,0,0,-0.1,0,226)"/>
<path style="fill:none;stroke-width:8.50395;stroke-linecap:butt;stroke-linejoin:miter;stroke:rgb(0%,0%,0%);stroke-opacity:1;stroke-miterlimit:2.5;" d="M 875.625 2160.859375 L 875.625 2102.1875 " transform="matrix(0.1,0,0,-0.1,0,226)"/>
<path style="fill:none;stroke-width:8.50395;stroke-linecap:butt;stroke-linejoin:miter;stroke:rgb(0%,0%,0%);stroke-opacity:1;stroke-miterlimit:2.5;" d="M 1440.585938 2160.859375 L 1440.585938 2102.1875 " transform="matrix(0.1,0,0,-0.1,0,226)"/>
<path style="fill:none;stroke-width:8.50395;stroke-linecap:butt;stroke-linejoin:miter;stroke:rgb(0%,0%,0%);stroke-opacity:1;stroke-miterlimit:2.5;" d="M 2005.78125 2160.859375 L 2005.78125 2102.1875 " transform="matrix(0.1,0,0,-0.1,0,226)"/>
<path style="fill:none;stroke-width:8.50395;stroke-linecap:butt;stroke-linejoin:miter;stroke:rgb(0%,0%,0%);stroke-opacity:1;stroke-miterlimit:2.5;" d="M 2570.742188 2160.859375 L 2570.742188 2102.1875 " transform="matrix(0.1,0,0,-0.1,0,226)"/>
<path style="fill:none;stroke-width:8.50395;stroke-linecap:butt;stroke-linejoin:miter;stroke:rgb(0%,0%,0%);stroke-opacity:1;stroke-miterlimit:2.5;" d="M 3135.976562 2160.859375 L 3135.976562 2102.1875 " transform="matrix(0.1,0,0,-0.1,0,226)"/>
<path style="fill:none;stroke-width:8.50395;stroke-linecap:butt;stroke-linejoin:miter;stroke:rgb(0%,0%,0%);stroke-opacity:1;stroke-miterlimit:2.5;" d="M 3700.9375 2160.859375 L 3700.9375 2102.1875 " transform="matrix(0.1,0,0,-0.1,0,226)"/>
<path style="fill:none;stroke-width:8.50395;stroke-linecap:butt;stroke-linejoin:miter;stroke:rgb(0%,0%,0%);stroke-opacity:1;stroke-miterlimit:2.5;" d="M 4266.132812 2160.859375 L 4266.132812 2102.1875 " transform="matrix(0.1,0,0,-0.1,0,226)"/>
<path style="fill:none;stroke-width:8.50395;stroke-linecap:butt;stroke-linejoin:miter;stroke:rgb(0%,0%,0%);stroke-opacity:1;stroke-miterlimit:2.5;" d="M 988.710938 2160.859375 L 988.710938 2131.367188 " transform="matrix(0.1,0,0,-0.1,0,226)"/>
<path style="fill:none;stroke-width:8.50395;stroke-linecap:butt;stroke-linejoin:miter;stroke:rgb(0%,0%,0%);stroke-opacity:1;stroke-miterlimit:2.5;" d="M 1101.523438 2160.859375 L 1101.523438 2131.367188 " transform="matrix(0.1,0,0,-0.1,0,226)"/>
<path style="fill:none;stroke-width:8.50395;stroke-linecap:butt;stroke-linejoin:miter;stroke:rgb(0%,0%,0%);stroke-opacity:1;stroke-miterlimit:2.5;" d="M 1214.648438 2160.859375 L 1214.648438 2131.367188 " transform="matrix(0.1,0,0,-0.1,0,226)"/>
<path style="fill:none;stroke-width:8.50395;stroke-linecap:butt;stroke-linejoin:miter;stroke:rgb(0%,0%,0%);stroke-opacity:1;stroke-miterlimit:2.5;" d="M 1327.734375 2160.859375 L 1327.734375 2131.367188 " transform="matrix(0.1,0,0,-0.1,0,226)"/>
<path style="fill:none;stroke-width:8.50395;stroke-linecap:butt;stroke-linejoin:miter;stroke:rgb(0%,0%,0%);stroke-opacity:1;stroke-miterlimit:2.5;" d="M 1553.671875 2160.859375 L 1553.671875 2131.367188 " transform="matrix(0.1,0,0,-0.1,0,226)"/>
<path style="fill:none;stroke-width:8.50395;stroke-linecap:butt;stroke-linejoin:miter;stroke:rgb(0%,0%,0%);stroke-opacity:1;stroke-miterlimit:2.5;" d="M 1666.757812 2160.859375 L 1666.757812 2131.367188 " transform="matrix(0.1,0,0,-0.1,0,226)"/>
<path style="fill:none;stroke-width:8.50395;stroke-linecap:butt;stroke-linejoin:miter;stroke:rgb(0%,0%,0%);stroke-opacity:1;stroke-miterlimit:2.5;" d="M 1779.609375 2160.859375 L 1779.609375 2131.367188 " transform="matrix(0.1,0,0,-0.1,0,226)"/>
<path style="fill:none;stroke-width:8.50395;stroke-linecap:butt;stroke-linejoin:miter;stroke:rgb(0%,0%,0%);stroke-opacity:1;stroke-miterlimit:2.5;" d="M 1892.695312 2160.859375 L 1892.695312 2131.367188 " transform="matrix(0.1,0,0,-0.1,0,226)"/>
<path style="fill:none;stroke-width:8.50395;stroke-linecap:butt;stroke-linejoin:miter;stroke:rgb(0%,0%,0%);stroke-opacity:1;stroke-miterlimit:2.5;" d="M 2118.90625 2160.859375 L 2118.90625 2131.367188 " transform="matrix(0.1,0,0,-0.1,0,226)"/>
<path style="fill:none;stroke-width:8.50395;stroke-linecap:butt;stroke-linejoin:miter;stroke:rgb(0%,0%,0%);stroke-opacity:1;stroke-miterlimit:2.5;" d="M 2231.71875 2160.859375 L 2231.71875 2131.367188 " transform="matrix(0.1,0,0,-0.1,0,226)"/>
<path style="fill:none;stroke-width:8.50395;stroke-linecap:butt;stroke-linejoin:miter;stroke:rgb(0%,0%,0%);stroke-opacity:1;stroke-miterlimit:2.5;" d="M 2344.804688 2160.859375 L 2344.804688 2131.367188 " transform="matrix(0.1,0,0,-0.1,0,226)"/>
<path style="fill:none;stroke-width:8.50395;stroke-linecap:butt;stroke-linejoin:miter;stroke:rgb(0%,0%,0%);stroke-opacity:1;stroke-miterlimit:2.5;" d="M 2457.929688 2160.859375 L 2457.929688 2131.367188 " transform="matrix(0.1,0,0,-0.1,0,226)"/>
<path style="fill:none;stroke-width:8.50395;stroke-linecap:butt;stroke-linejoin:miter;stroke:rgb(0%,0%,0%);stroke-opacity:1;stroke-miterlimit:2.5;" d="M 2683.867188 2160.859375 L 2683.867188 2131.367188 " transform="matrix(0.1,0,0,-0.1,0,226)"/>
<path style="fill:none;stroke-width:8.50395;stroke-linecap:butt;stroke-linejoin:miter;stroke:rgb(0%,0%,0%);stroke-opacity:1;stroke-miterlimit:2.5;" d="M 2796.953125 2160.859375 L 2796.953125 2131.367188 " transform="matrix(0.1,0,0,-0.1,0,226)"/>
<path style="fill:none;stroke-width:8.50395;stroke-linecap:butt;stroke-linejoin:miter;stroke:rgb(0%,0%,0%);stroke-opacity:1;stroke-miterlimit:2.5;" d="M 2909.765625 2160.859375 L 2909.765625 2131.367188 " transform="matrix(0.1,0,0,-0.1,0,226)"/>
<path style="fill:none;stroke-width:8.50395;stroke-linecap:butt;stroke-linejoin:miter;stroke:rgb(0%,0%,0%);stroke-opacity:1;stroke-miterlimit:2.5;" d="M 3022.851562 2160.859375 L 3022.851562 2131.367188 " transform="matrix(0.1,0,0,-0.1,0,226)"/>
<path style="fill:none;stroke-width:8.50395;stroke-linecap:butt;stroke-linejoin:miter;stroke:rgb(0%,0%,0%);stroke-opacity:1;stroke-miterlimit:2.5;" d="M 3248.789062 2160.859375 L 3248.789062 2131.367188 " transform="matrix(0.1,0,0,-0.1,0,226)"/>
<path style="fill:none;stroke-width:8.50395;stroke-linecap:butt;stroke-linejoin:miter;stroke:rgb(0%,0%,0%);stroke-opacity:1;stroke-miterlimit:2.5;" d="M 3361.875 2160.859375 L 3361.875 2131.367188 " transform="matrix(0.1,0,0,-0.1,0,226)"/>
<path style="fill:none;stroke-width:8.50395;stroke-linecap:butt;stroke-linejoin:miter;stroke:rgb(0%,0%,0%);stroke-opacity:1;stroke-miterlimit:2.5;" d="M 3475 2160.859375 L 3475 2131.367188 " transform="matrix(0.1,0,0,-0.1,0,226)"/>
<path style="fill:none;stroke-width:8.50395;stroke-linecap:butt;stroke-linejoin:miter;stroke:rgb(0%,0%,0%);stroke-opacity:1;stroke-miterlimit:2.5;" d="M 3588.085938 2160.859375 L 3588.085938 2131.367188 " transform="matrix(0.1,0,0,-0.1,0,226)"/>
<path style="fill:none;stroke-width:8.50395;stroke-linecap:butt;stroke-linejoin:miter;stroke:rgb(0%,0%,0%);stroke-opacity:1;stroke-miterlimit:2.5;" d="M 3814.023438 2160.859375 L 3814.023438 2131.367188 " transform="matrix(0.1,0,0,-0.1,0,226)"/>
<path style="fill:none;stroke-width:8.50395;stroke-linecap:butt;stroke-linejoin:miter;stroke:rgb(0%,0%,0%);stroke-opacity:1;stroke-miterlimit:2.5;" d="M 3927.109375 2160.859375 L 3927.109375 2131.367188 " transform="matrix(0.1,0,0,-0.1,0,226)"/>
<path style="fill:none;stroke-width:8.50395;stroke-linecap:butt;stroke-linejoin:miter;stroke:rgb(0%,0%,0%);stroke-opacity:1;stroke-miterlimit:2.5;" d="M 4039.921875 2160.859375 L 4039.921875 2131.367188 " transform="matrix(0.1,0,0,-0.1,0,226)"/>
<path style="fill:none;stroke-width:8.50395;stroke-linecap:butt;stroke-linejoin:miter;stroke:rgb(0%,0%,0%);stroke-opacity:1;stroke-miterlimit:2.5;" d="M 4153.046875 2160.859375 L 4153.046875 2131.367188 " transform="matrix(0.1,0,0,-0.1,0,226)"/>
<path style="fill:none;stroke-width:8.50395;stroke-linecap:butt;stroke-linejoin:miter;stroke:rgb(0%,0%,0%);stroke-opacity:1;stroke-miterlimit:2.5;" d="M 875.625 427.1875 L 875.625 2160.859375 " transform="matrix(0.1,0,0,-0.1,0,226)"/>
<path style="fill:none;stroke-width:8.50395;stroke-linecap:butt;stroke-linejoin:miter;stroke:rgb(0%,0%,0%);stroke-opacity:1;stroke-miterlimit:2.5;" d="M 875.625 427.1875 L 990.703125 427.1875 " transform="matrix(0.1,0,0,-0.1,0,226)"/>
<path style="fill:none;stroke-width:8.50395;stroke-linecap:butt;stroke-linejoin:miter;stroke:rgb(0%,0%,0%);stroke-opacity:1;stroke-miterlimit:2.5;" d="M 568.90625 483.867188 L 568.90625 487.578125 L 572.617188 494.648438 L 576.015625 498.046875 L 583.085938 501.71875 L 597.265625 501.71875 L 604.335938 498.046875 L 608.046875 494.648438 L 611.445312 487.578125 L 611.445312 480.46875 L 608.046875 473.398438 L 600.9375 462.617188 L 565.507812 427.1875 L 615.117188 427.1875 " transform="matrix(0.1,0,0,-0.1,0,226)"/>
<path style="fill:none;stroke-width:8.50395;stroke-linecap:butt;stroke-linejoin:miter;stroke:rgb(0%,0%,0%);stroke-opacity:1;stroke-miterlimit:2.5;" d="M 657.65625 501.71875 L 646.875 498.046875 L 639.765625 487.578125 L 636.367188 469.6875 L 636.367188 459.21875 L 639.765625 441.367188 L 646.875 430.859375 L 657.65625 427.1875 L 664.726562 427.1875 L 675.195312 430.859375 L 682.304688 441.367188 L 685.976562 459.21875 L 685.976562 469.6875 L 682.304688 487.578125 L 675.195312 498.046875 L 664.726562 501.71875 L 657.65625 501.71875 " transform="matrix(0.1,0,0,-0.1,0,226)"/>
<path style="fill:none;stroke-width:8.50395;stroke-linecap:butt;stroke-linejoin:miter;stroke:rgb(0%,0%,0%);stroke-opacity:1;stroke-miterlimit:2.5;" d="M 728.515625 501.71875 L 717.734375 498.046875 L 710.664062 487.578125 L 707.226562 469.6875 L 707.226562 459.21875 L 710.664062 441.367188 L 717.734375 430.859375 L 728.515625 427.1875 L 735.585938 427.1875 L 746.367188 430.859375 L 753.4375 441.367188 L 756.835938 459.21875 L 756.835938 469.6875 L 753.4375 487.578125 L 746.367188 498.046875 L 735.585938 501.71875 L 728.515625 501.71875 " transform="matrix(0.1,0,0,-0.1,0,226)"/>
<path style="fill:none;stroke-width:8.50395;stroke-linecap:butt;stroke-linejoin:miter;stroke:rgb(0%,0%,0%);stroke-opacity:1;stroke-miterlimit:2.5;" d="M 799.375 501.71875 L 788.867188 498.046875 L 781.796875 487.578125 L 778.125 469.6875 L 778.125 459.21875 L 781.796875 441.367188 L 788.867188 430.859375 L 799.375 427.1875 L 806.445312 427.1875 L 817.226562 430.859375 L 824.296875 441.367188 L 827.734375 459.21875 L 827.734375 469.6875 L 824.296875 487.578125 L 817.226562 498.046875 L 806.445312 501.71875 L 799.375 501.71875 " transform="matrix(0.1,0,0,-0.1,0,226)"/>
<path style="fill:none;stroke-width:8.50395;stroke-linecap:butt;stroke-linejoin:miter;stroke:rgb(0%,0%,0%);stroke-opacity:1;stroke-miterlimit:2.5;" d="M 875.625 860.585938 L 990.703125 860.585938 " transform="matrix(0.1,0,0,-0.1,0,226)"/>
<path style="fill:none;stroke-width:8.50395;stroke-linecap:butt;stroke-linejoin:miter;stroke:rgb(0%,0%,0%);stroke-opacity:1;stroke-miterlimit:2.5;" d="M 600.9375 892.34375 L 565.507812 842.734375 L 618.515625 842.734375 " transform="matrix(0.1,0,0,-0.1,0,226)"/>
<path style="fill:none;stroke-width:8.50395;stroke-linecap:butt;stroke-linejoin:miter;stroke:rgb(0%,0%,0%);stroke-opacity:1;stroke-miterlimit:2.5;" d="M 600.9375 892.34375 L 600.9375 817.8125 " transform="matrix(0.1,0,0,-0.1,0,226)"/>
<path style="fill:none;stroke-width:8.50395;stroke-linecap:butt;stroke-linejoin:miter;stroke:rgb(0%,0%,0%);stroke-opacity:1;stroke-miterlimit:2.5;" d="M 657.65625 892.34375 L 646.875 888.945312 L 639.765625 878.164062 L 636.367188 860.3125 L 636.367188 849.84375 L 639.765625 831.953125 L 646.875 821.484375 L 657.65625 817.8125 L 664.726562 817.8125 L 675.195312 821.484375 L 682.304688 831.953125 L 685.976562 849.84375 L 685.976562 860.3125 L 682.304688 878.164062 L 675.195312 888.945312 L 664.726562 892.34375 L 657.65625 892.34375 " transform="matrix(0.1,0,0,-0.1,0,226)"/>
<path style="fill:none;stroke-width:8.50395;stroke-linecap:butt;stroke-linejoin:miter;stroke:rgb(0%,0%,0%);stroke-opacity:1;stroke-miterlimit:2.5;" d="M 728.515625 892.34375 L 717.734375 888.945312 L 710.664062 878.164062 L 707.226562 860.3125 L 707.226562 849.84375 L 710.664062 831.953125 L 717.734375 821.484375 L 728.515625 817.8125 L 735.585938 817.8125 L 746.367188 821.484375 L 753.4375 831.953125 L 756.835938 849.84375 L 756.835938 860.3125 L 753.4375 878.164062 L 746.367188 888.945312 L 735.585938 892.34375 L 728.515625 892.34375 " transform="matrix(0.1,0,0,-0.1,0,226)"/>
<path style="fill:none;stroke-width:8.50395;stroke-linecap:butt;stroke-linejoin:miter;stroke:rgb(0%,0%,0%);stroke-opacity:1;stroke-miterlimit:2.5;" d="M 799.375 892.34375 L 788.867188 888.945312 L 781.796875 878.164062 L 778.125 860.3125 L 778.125 849.84375 L 781.796875 831.953125 L 788.867188 821.484375 L 799.375 817.8125 L 806.445312 817.8125 L 817.226562 821.484375 L 824.296875 831.953125 L 827.734375 849.84375 L 827.734375 860.3125 L 824.296875 878.164062 L 817.226562 888.945312 L 806.445312 892.34375 L 799.375 892.34375 " transform="matrix(0.1,0,0,-0.1,0,226)"/>
<path style="fill:none;stroke-width:8.50395;stroke-linecap:butt;stroke-linejoin:miter;stroke:rgb(0%,0%,0%);stroke-opacity:1;stroke-miterlimit:2.5;" d="M 875.625 1294.023438 L 990.703125 1294.023438 " transform="matrix(0.1,0,0,-0.1,0,226)"/>
<path style="fill:none;stroke-width:8.50395;stroke-linecap:butt;stroke-linejoin:miter;stroke:rgb(0%,0%,0%);stroke-opacity:1;stroke-miterlimit:2.5;" d="M 611.445312 1315.273438 L 608.046875 1322.34375 L 597.265625 1325.78125 L 590.15625 1325.78125 L 579.6875 1322.34375 L 572.617188 1311.601562 L 568.90625 1294.023438 L 568.90625 1276.171875 L 572.617188 1261.992188 L 579.6875 1254.882812 L 590.15625 1251.210938 L 593.867188 1251.210938 L 604.335938 1254.882812 L 611.445312 1261.992188 L 615.117188 1272.460938 L 615.117188 1276.171875 L 611.445312 1286.914062 L 604.335938 1294.023438 L 593.867188 1297.421875 L 590.15625 1297.421875 L 579.6875 1294.023438 L 572.617188 1286.914062 L 568.90625 1276.171875 " transform="matrix(0.1,0,0,-0.1,0,226)"/>
<path style="fill:none;stroke-width:8.50395;stroke-linecap:butt;stroke-linejoin:miter;stroke:rgb(0%,0%,0%);stroke-opacity:1;stroke-miterlimit:2.5;" d="M 657.65625 1325.78125 L 646.875 1322.34375 L 639.765625 1311.601562 L 636.367188 1294.023438 L 636.367188 1283.242188 L 639.765625 1265.390625 L 646.875 1254.882812 L 657.65625 1251.210938 L 664.726562 1251.210938 L 675.195312 1254.882812 L 682.304688 1265.390625 L 685.976562 1283.242188 L 685.976562 1294.023438 L 682.304688 1311.601562 L 675.195312 1322.34375 L 664.726562 1325.78125 L 657.65625 1325.78125 " transform="matrix(0.1,0,0,-0.1,0,226)"/>
<path style="fill:none;stroke-width:8.50395;stroke-linecap:butt;stroke-linejoin:miter;stroke:rgb(0%,0%,0%);stroke-opacity:1;stroke-miterlimit:2.5;" d="M 728.515625 1325.78125 L 717.734375 1322.34375 L 710.664062 1311.601562 L 707.226562 1294.023438 L 707.226562 1283.242188 L 710.664062 1265.390625 L 717.734375 1254.882812 L 728.515625 1251.210938 L 735.585938 1251.210938 L 746.367188 1254.882812 L 753.4375 1265.390625 L 756.835938 1283.242188 L 756.835938 1294.023438 L 753.4375 1311.601562 L 746.367188 1322.34375 L 735.585938 1325.78125 L 728.515625 1325.78125 " transform="matrix(0.1,0,0,-0.1,0,226)"/>
<path style="fill:none;stroke-width:8.50395;stroke-linecap:butt;stroke-linejoin:miter;stroke:rgb(0%,0%,0%);stroke-opacity:1;stroke-miterlimit:2.5;" d="M 799.375 1325.78125 L 788.867188 1322.34375 L 781.796875 1311.601562 L 778.125 1294.023438 L 778.125 1283.242188 L 781.796875 1265.390625 L 788.867188 1254.882812 L 799.375 1251.210938 L 806.445312 1251.210938 L 817.226562 1254.882812 L 824.296875 1265.390625 L 827.734375 1283.242188 L 827.734375 1294.023438 L 824.296875 1311.601562 L 817.226562 1322.34375 L 806.445312 1325.78125 L 799.375 1325.78125 " transform="matrix(0.1,0,0,-0.1,0,226)"/>
<path style="fill:none;stroke-width:8.50395;stroke-linecap:butt;stroke-linejoin:miter;stroke:rgb(0%,0%,0%);stroke-opacity:1;stroke-miterlimit:2.5;" d="M 875.625 1727.421875 L 990.703125 1727.421875 " transform="matrix(0.1,0,0,-0.1,0,226)"/>
<path style="fill:none;stroke-width:8.50395;stroke-linecap:butt;stroke-linejoin:miter;stroke:rgb(0%,0%,0%);stroke-opacity:1;stroke-miterlimit:2.5;" d="M 583.085938 1759.179688 L 572.617188 1755.78125 L 568.90625 1748.710938 L 568.90625 1741.601562 L 572.617188 1734.53125 L 579.6875 1730.859375 L 593.867188 1727.421875 L 604.335938 1723.75 L 611.445312 1716.679688 L 615.117188 1709.570312 L 615.117188 1699.101562 L 611.445312 1691.992188 L 608.046875 1688.320312 L 597.265625 1684.921875 L 583.085938 1684.921875 L 572.617188 1688.320312 L 568.90625 1691.992188 L 565.507812 1699.101562 L 565.507812 1709.570312 L 568.90625 1716.679688 L 576.015625 1723.75 L 586.757812 1727.421875 L 600.9375 1730.859375 L 608.046875 1734.53125 L 611.445312 1741.601562 L 611.445312 1748.710938 L 608.046875 1755.78125 L 597.265625 1759.179688 L 583.085938 1759.179688 " transform="matrix(0.1,0,0,-0.1,0,226)"/>
<path style="fill:none;stroke-width:8.50395;stroke-linecap:butt;stroke-linejoin:miter;stroke:rgb(0%,0%,0%);stroke-opacity:1;stroke-miterlimit:2.5;" d="M 657.65625 1759.179688 L 646.875 1755.78125 L 639.765625 1745 L 636.367188 1727.421875 L 636.367188 1716.640625 L 639.765625 1699.101562 L 646.875 1688.320312 L 657.65625 1684.921875 L 664.726562 1684.921875 L 675.195312 1688.320312 L 682.304688 1699.101562 L 685.976562 1716.640625 L 685.976562 1727.421875 L 682.304688 1745 L 675.195312 1755.78125 L 664.726562 1759.179688 L 657.65625 1759.179688 " transform="matrix(0.1,0,0,-0.1,0,226)"/>
<path style="fill:none;stroke-width:8.50395;stroke-linecap:butt;stroke-linejoin:miter;stroke:rgb(0%,0%,0%);stroke-opacity:1;stroke-miterlimit:2.5;" d="M 728.515625 1759.179688 L 717.734375 1755.78125 L 710.664062 1745 L 707.226562 1727.421875 L 707.226562 1716.640625 L 710.664062 1699.101562 L 717.734375 1688.320312 L 728.515625 1684.921875 L 735.585938 1684.921875 L 746.367188 1688.320312 L 753.4375 1699.101562 L 756.835938 1716.640625 L 756.835938 1727.421875 L 753.4375 1745 L 746.367188 1755.78125 L 735.585938 1759.179688 L 728.515625 1759.179688 " transform="matrix(0.1,0,0,-0.1,0,226)"/>
<path style="fill:none;stroke-width:8.50395;stroke-linecap:butt;stroke-linejoin:miter;stroke:rgb(0%,0%,0%);stroke-opacity:1;stroke-miterlimit:2.5;" d="M 799.375 1759.179688 L 788.867188 1755.78125 L 781.796875 1745 L 778.125 1727.421875 L 778.125 1716.640625 L 781.796875 1699.101562 L 788.867188 1688.320312 L 799.375 1684.921875 L 806.445312 1684.921875 L 817.226562 1688.320312 L 824.296875 1699.101562 L 827.734375 1716.640625 L 827.734375 1727.421875 L 824.296875 1745 L 817.226562 1755.78125 L 806.445312 1759.179688 L 799.375 1759.179688 " transform="matrix(0.1,0,0,-0.1,0,226)"/>
<path style="fill:none;stroke-width:8.50395;stroke-linecap:butt;stroke-linejoin:miter;stroke:rgb(0%,0%,0%);stroke-opacity:1;stroke-miterlimit:2.5;" d="M 875.625 2160.859375 L 990.703125 2160.859375 " transform="matrix(0.1,0,0,-0.1,0,226)"/>
<path style="fill:none;stroke-width:8.50395;stroke-linecap:butt;stroke-linejoin:miter;stroke:rgb(0%,0%,0%);stroke-opacity:1;stroke-miterlimit:2.5;" d="M 505.117188 2146.40625 L 512.226562 2150.078125 L 523.007812 2160.585938 L 523.007812 2086.289062 " transform="matrix(0.1,0,0,-0.1,0,226)"/>
<path style="fill:none;stroke-width:8.50395;stroke-linecap:butt;stroke-linejoin:miter;stroke:rgb(0%,0%,0%);stroke-opacity:1;stroke-miterlimit:2.5;" d="M 586.757812 2160.585938 L 576.015625 2157.1875 L 568.90625 2146.40625 L 565.507812 2128.828125 L 565.507812 2118.046875 L 568.90625 2100.46875 L 576.015625 2089.6875 L 586.757812 2086.289062 L 593.867188 2086.289062 L 604.335938 2089.6875 L 611.445312 2100.46875 L 615.117188 2118.046875 L 615.117188 2128.828125 L 611.445312 2146.40625 L 604.335938 2157.1875 L 593.867188 2160.585938 L 586.757812 2160.585938 " transform="matrix(0.1,0,0,-0.1,0,226)"/>
<path style="fill:none;stroke-width:8.50395;stroke-linecap:butt;stroke-linejoin:miter;stroke:rgb(0%,0%,0%);stroke-opacity:1;stroke-miterlimit:2.5;" d="M 657.65625 2160.585938 L 646.875 2157.1875 L 639.765625 2146.40625 L 636.367188 2128.828125 L 636.367188 2118.046875 L 639.765625 2100.46875 L 646.875 2089.6875 L 657.65625 2086.289062 L 664.726562 2086.289062 L 675.195312 2089.6875 L 682.304688 2100.46875 L 685.976562 2118.046875 L 685.976562 2128.828125 L 682.304688 2146.40625 L 675.195312 2157.1875 L 664.726562 2160.585938 L 657.65625 2160.585938 " transform="matrix(0.1,0,0,-0.1,0,226)"/>
<path style="fill:none;stroke-width:8.50395;stroke-linecap:butt;stroke-linejoin:miter;stroke:rgb(0%,0%,0%);stroke-opacity:1;stroke-miterlimit:2.5;" d="M 728.515625 2160.585938 L 717.734375 2157.1875 L 710.664062 2146.40625 L 707.226562 2128.828125 L 707.226562 2118.046875 L 710.664062 2100.46875 L 717.734375 2089.6875 L 728.515625 2086.289062 L 735.585938 2086.289062 L 746.367188 2089.6875 L 753.4375 2100.46875 L 756.835938 2118.046875 L 756.835938 2128.828125 L 753.4375 2146.40625 L 746.367188 2157.1875 L 735.585938 2160.585938 L 728.515625 2160.585938 " transform="matrix(0.1,0,0,-0.1,0,226)"/>
<path style="fill:none;stroke-width:8.50395;stroke-linecap:butt;stroke-linejoin:miter;stroke:rgb(0%,0%,0%);stroke-opacity:1;stroke-miterlimit:2.5;" d="M 799.375 2160.585938 L 788.867188 2157.1875 L 781.796875 2146.40625 L 778.125 2128.828125 L 778.125 2118.046875 L 781.796875 2100.46875 L 788.867188 2089.6875 L 799.375 2086.289062 L 806.445312 2086.289062 L 817.226562 2089.6875 L 824.296875 2100.46875 L 827.734375 2118.046875 L 827.734375 2128.828125 L 824.296875 2146.40625 L 817.226562 2157.1875 L 806.445312 2160.585938 L 799.375 2160.585938 " transform="matrix(0.1,0,0,-0.1,0,226)"/>
<path style="fill:none;stroke-width:8.50395;stroke-linecap:butt;stroke-linejoin:miter;stroke:rgb(0%,0%,0%);stroke-opacity:1;stroke-miterlimit:2.5;" d="M 875.625 535.46875 L 933.164062 535.46875 " transform="matrix(0.1,0,0,-0.1,0,226)"/>
<path style="fill:none;stroke-width:8.50395;stroke-linecap:butt;stroke-linejoin:miter;stroke:rgb(0%,0%,0%);stroke-opacity:1;stroke-miterlimit:2.5;" d="M 875.625 644.023438 L 933.164062 644.023438 " transform="matrix(0.1,0,0,-0.1,0,226)"/>
<path style="fill:none;stroke-width:8.50395;stroke-linecap:butt;stroke-linejoin:miter;stroke:rgb(0%,0%,0%);stroke-opacity:1;stroke-miterlimit:2.5;" d="M 875.625 752.304688 L 933.164062 752.304688 " transform="matrix(0.1,0,0,-0.1,0,226)"/>
<path style="fill:none;stroke-width:8.50395;stroke-linecap:butt;stroke-linejoin:miter;stroke:rgb(0%,0%,0%);stroke-opacity:1;stroke-miterlimit:2.5;" d="M 875.625 968.867188 L 933.164062 968.867188 " transform="matrix(0.1,0,0,-0.1,0,226)"/>
<path style="fill:none;stroke-width:8.50395;stroke-linecap:butt;stroke-linejoin:miter;stroke:rgb(0%,0%,0%);stroke-opacity:1;stroke-miterlimit:2.5;" d="M 875.625 1077.460938 L 933.164062 1077.460938 " transform="matrix(0.1,0,0,-0.1,0,226)"/>
<path style="fill:none;stroke-width:8.50395;stroke-linecap:butt;stroke-linejoin:miter;stroke:rgb(0%,0%,0%);stroke-opacity:1;stroke-miterlimit:2.5;" d="M 875.625 1185.742188 L 933.164062 1185.742188 " transform="matrix(0.1,0,0,-0.1,0,226)"/>
<path style="fill:none;stroke-width:8.50395;stroke-linecap:butt;stroke-linejoin:miter;stroke:rgb(0%,0%,0%);stroke-opacity:1;stroke-miterlimit:2.5;" d="M 875.625 1402.304688 L 933.164062 1402.304688 " transform="matrix(0.1,0,0,-0.1,0,226)"/>
<path style="fill:none;stroke-width:8.50395;stroke-linecap:butt;stroke-linejoin:miter;stroke:rgb(0%,0%,0%);stroke-opacity:1;stroke-miterlimit:2.5;" d="M 875.625 1510.859375 L 933.164062 1510.859375 " transform="matrix(0.1,0,0,-0.1,0,226)"/>
<path style="fill:none;stroke-width:8.50395;stroke-linecap:butt;stroke-linejoin:miter;stroke:rgb(0%,0%,0%);stroke-opacity:1;stroke-miterlimit:2.5;" d="M 875.625 1619.140625 L 933.164062 1619.140625 " transform="matrix(0.1,0,0,-0.1,0,226)"/>
<path style="fill:none;stroke-width:8.50395;stroke-linecap:butt;stroke-linejoin:miter;stroke:rgb(0%,0%,0%);stroke-opacity:1;stroke-miterlimit:2.5;" d="M 875.625 1835.703125 L 933.164062 1835.703125 " transform="matrix(0.1,0,0,-0.1,0,226)"/>
<path style="fill:none;stroke-width:8.50395;stroke-linecap:butt;stroke-linejoin:miter;stroke:rgb(0%,0%,0%);stroke-opacity:1;stroke-miterlimit:2.5;" d="M 875.625 1944.296875 L 933.164062 1944.296875 " transform="matrix(0.1,0,0,-0.1,0,226)"/>
<path style="fill:none;stroke-width:8.50395;stroke-linecap:butt;stroke-linejoin:miter;stroke:rgb(0%,0%,0%);stroke-opacity:1;stroke-miterlimit:2.5;" d="M 875.625 2052.578125 L 933.164062 2052.578125 " transform="matrix(0.1,0,0,-0.1,0,226)"/>
<path style="fill:none;stroke-width:8.50395;stroke-linecap:butt;stroke-linejoin:miter;stroke:rgb(0%,0%,0%);stroke-opacity:1;stroke-miterlimit:2.5;" d="M 312.109375 854.375 L 372.1875 854.375 L 382.96875 858.046875 L 386.367188 865.117188 L 386.367188 872.226562 " transform="matrix(0.1,0,0,-0.1,0,226)"/>
<path style="fill:none;stroke-width:8.50395;stroke-linecap:butt;stroke-linejoin:miter;stroke:rgb(0%,0%,0%);stroke-opacity:1;stroke-miterlimit:2.5;" d="M 336.757812 843.867188 L 336.757812 868.554688 " transform="matrix(0.1,0,0,-0.1,0,226)"/>
<path style="fill:none;stroke-width:8.50395;stroke-linecap:butt;stroke-linejoin:miter;stroke:rgb(0%,0%,0%);stroke-opacity:1;stroke-miterlimit:2.5;" d="M 358.007812 890.078125 L 358.007812 932.617188 L 350.9375 932.617188 L 343.828125 928.90625 L 340.429688 925.507812 L 336.757812 918.4375 L 336.757812 907.65625 L 340.429688 900.585938 L 347.539062 893.476562 L 358.007812 890.078125 L 365.117188 890.078125 L 375.859375 893.476562 L 382.96875 900.585938 L 386.367188 907.65625 L 386.367188 918.4375 L 382.96875 925.507812 L 375.859375 932.617188 " transform="matrix(0.1,0,0,-0.1,0,226)"/>
<path style="fill:none;stroke-width:8.50395;stroke-linecap:butt;stroke-linejoin:miter;stroke:rgb(0%,0%,0%);stroke-opacity:1;stroke-miterlimit:2.5;" d="M 336.757812 957.265625 L 386.367188 957.265625 " transform="matrix(0.1,0,0,-0.1,0,226)"/>
<path style="fill:none;stroke-width:8.50395;stroke-linecap:butt;stroke-linejoin:miter;stroke:rgb(0%,0%,0%);stroke-opacity:1;stroke-miterlimit:2.5;" d="M 350.9375 957.265625 L 340.429688 968.046875 L 336.757812 975.117188 L 336.757812 985.625 L 340.429688 992.695312 L 350.9375 996.367188 L 386.367188 996.367188 " transform="matrix(0.1,0,0,-0.1,0,226)"/>
<path style="fill:none;stroke-width:8.50395;stroke-linecap:butt;stroke-linejoin:miter;stroke:rgb(0%,0%,0%);stroke-opacity:1;stroke-miterlimit:2.5;" d="M 350.9375 996.367188 L 340.429688 1006.875 L 336.757812 1013.945312 L 336.757812 1024.726562 L 340.429688 1031.796875 L 350.9375 1035.195312 L 386.367188 1035.195312 " transform="matrix(0.1,0,0,-0.1,0,226)"/>
<path style="fill:none;stroke-width:8.50395;stroke-linecap:butt;stroke-linejoin:miter;stroke:rgb(0%,0%,0%);stroke-opacity:1;stroke-miterlimit:2.5;" d="M 336.757812 1063.554688 L 414.726562 1063.554688 " transform="matrix(0.1,0,0,-0.1,0,226)"/>
<path style="fill:none;stroke-width:8.50395;stroke-linecap:butt;stroke-linejoin:miter;stroke:rgb(0%,0%,0%);stroke-opacity:1;stroke-miterlimit:2.5;" d="M 347.539062 1063.554688 L 340.429688 1070.664062 L 336.757812 1077.734375 L 336.757812 1088.515625 L 340.429688 1095.585938 L 347.539062 1102.695312 L 358.007812 1106.09375 L 365.117188 1106.09375 L 375.859375 1102.695312 L 382.96875 1095.585938 L 386.367188 1088.515625 L 386.367188 1077.734375 L 382.96875 1070.664062 L 375.859375 1063.554688 " transform="matrix(0.1,0,0,-0.1,0,226)"/>
<path style="fill:none;stroke-width:8.50395;stroke-linecap:butt;stroke-linejoin:miter;stroke:rgb(0%,0%,0%);stroke-opacity:1;stroke-miterlimit:2.5;" d="M 358.007812 1127.34375 L 358.007812 1169.84375 L 350.9375 1169.84375 L 343.828125 1166.445312 L 340.429688 1162.773438 L 336.757812 1155.703125 L 336.757812 1145.195312 L 340.429688 1138.125 L 347.539062 1131.015625 L 358.007812 1127.34375 L 365.117188 1127.34375 L 375.859375 1131.015625 L 382.96875 1138.125 L 386.367188 1145.195312 L 386.367188 1155.703125 L 382.96875 1162.773438 L 375.859375 1169.84375 " transform="matrix(0.1,0,0,-0.1,0,226)"/>
<path style="fill:none;stroke-width:8.50395;stroke-linecap:butt;stroke-linejoin:miter;stroke:rgb(0%,0%,0%);stroke-opacity:1;stroke-miterlimit:2.5;" d="M 336.757812 1194.804688 L 386.367188 1194.804688 " transform="matrix(0.1,0,0,-0.1,0,226)"/>
<path style="fill:none;stroke-width:8.50395;stroke-linecap:butt;stroke-linejoin:miter;stroke:rgb(0%,0%,0%);stroke-opacity:1;stroke-miterlimit:2.5;" d="M 358.007812 1194.804688 L 347.539062 1198.476562 L 340.429688 1205.585938 L 336.757812 1212.65625 L 336.757812 1223.164062 " transform="matrix(0.1,0,0,-0.1,0,226)"/>
<path style="fill:none;stroke-width:8.50395;stroke-linecap:butt;stroke-linejoin:miter;stroke:rgb(0%,0%,0%);stroke-opacity:1;stroke-miterlimit:2.5;" d="M 336.757812 1279.84375 L 386.367188 1279.84375 " transform="matrix(0.1,0,0,-0.1,0,226)"/>
<path style="fill:none;stroke-width:8.50395;stroke-linecap:butt;stroke-linejoin:miter;stroke:rgb(0%,0%,0%);stroke-opacity:1;stroke-miterlimit:2.5;" d="M 347.539062 1279.84375 L 340.429688 1272.773438 L 336.757812 1265.664062 L 336.757812 1255.195312 L 340.429688 1248.085938 L 347.539062 1241.015625 L 358.007812 1237.34375 L 365.117188 1237.34375 L 375.859375 1241.015625 L 382.96875 1248.085938 L 386.367188 1255.195312 L 386.367188 1265.664062 L 382.96875 1272.773438 L 375.859375 1279.84375 " transform="matrix(0.1,0,0,-0.1,0,226)"/>
<path style="fill:none;stroke-width:8.50395;stroke-linecap:butt;stroke-linejoin:miter;stroke:rgb(0%,0%,0%);stroke-opacity:1;stroke-miterlimit:2.5;" d="M 312.109375 1311.875 L 372.1875 1311.875 L 382.96875 1315.273438 L 386.367188 1322.34375 L 386.367188 1329.453125 " transform="matrix(0.1,0,0,-0.1,0,226)"/>
<path style="fill:none;stroke-width:8.50395;stroke-linecap:butt;stroke-linejoin:miter;stroke:rgb(0%,0%,0%);stroke-opacity:1;stroke-miterlimit:2.5;" d="M 336.757812 1301.09375 L 336.757812 1326.054688 " transform="matrix(0.1,0,0,-0.1,0,226)"/>
<path style="fill:none;stroke-width:8.50395;stroke-linecap:butt;stroke-linejoin:miter;stroke:rgb(0%,0%,0%);stroke-opacity:1;stroke-miterlimit:2.5;" d="M 336.757812 1350.703125 L 372.1875 1350.703125 L 382.96875 1354.414062 L 386.367188 1361.484375 L 386.367188 1371.953125 L 382.96875 1379.0625 L 372.1875 1389.84375 " transform="matrix(0.1,0,0,-0.1,0,226)"/>
<path style="fill:none;stroke-width:8.50395;stroke-linecap:butt;stroke-linejoin:miter;stroke:rgb(0%,0%,0%);stroke-opacity:1;stroke-miterlimit:2.5;" d="M 336.757812 1389.84375 L 386.367188 1389.84375 " transform="matrix(0.1,0,0,-0.1,0,226)"/>
<path style="fill:none;stroke-width:8.50395;stroke-linecap:butt;stroke-linejoin:miter;stroke:rgb(0%,0%,0%);stroke-opacity:1;stroke-miterlimit:2.5;" d="M 336.757812 1418.164062 L 386.367188 1418.164062 " transform="matrix(0.1,0,0,-0.1,0,226)"/>
<path style="fill:none;stroke-width:8.50395;stroke-linecap:butt;stroke-linejoin:miter;stroke:rgb(0%,0%,0%);stroke-opacity:1;stroke-miterlimit:2.5;" d="M 358.007812 1418.164062 L 347.539062 1421.5625 L 340.429688 1428.671875 L 336.757812 1435.742188 L 336.757812 1446.523438 " transform="matrix(0.1,0,0,-0.1,0,226)"/>
<path style="fill:none;stroke-width:8.50395;stroke-linecap:butt;stroke-linejoin:miter;stroke:rgb(0%,0%,0%);stroke-opacity:1;stroke-miterlimit:2.5;" d="M 358.007812 1460.703125 L 358.007812 1503.203125 L 350.9375 1503.203125 L 343.828125 1499.53125 L 340.429688 1496.132812 L 336.757812 1489.023438 L 336.757812 1478.28125 L 340.429688 1471.171875 L 347.539062 1464.101562 L 358.007812 1460.703125 L 365.117188 1460.703125 L 375.859375 1464.101562 L 382.96875 1471.171875 L 386.367188 1478.28125 L 386.367188 1489.023438 L 382.96875 1496.132812 L 375.859375 1503.203125 " transform="matrix(0.1,0,0,-0.1,0,226)"/>
<path style="fill:none;stroke-width:8.50395;stroke-linecap:butt;stroke-linejoin:miter;stroke:rgb(0%,0%,0%);stroke-opacity:1;stroke-miterlimit:2.5;" d="M 297.929688 1584.84375 L 414.726562 1584.84375 " transform="matrix(0.1,0,0,-0.1,0,226)"/>
<path style="fill:none;stroke-width:8.50395;stroke-linecap:butt;stroke-linejoin:miter;stroke:rgb(0%,0%,0%);stroke-opacity:1;stroke-miterlimit:2.5;" d="M 297.929688 1588.242188 L 414.726562 1588.242188 " transform="matrix(0.1,0,0,-0.1,0,226)"/>
<path style="fill:none;stroke-width:8.50395;stroke-linecap:butt;stroke-linejoin:miter;stroke:rgb(0%,0%,0%);stroke-opacity:1;stroke-miterlimit:2.5;" d="M 297.929688 1584.84375 L 297.929688 1609.492188 " transform="matrix(0.1,0,0,-0.1,0,226)"/>
<path style="fill:none;stroke-width:8.50395;stroke-linecap:butt;stroke-linejoin:miter;stroke:rgb(0%,0%,0%);stroke-opacity:1;stroke-miterlimit:2.5;" d="M 414.726562 1584.84375 L 414.726562 1609.492188 " transform="matrix(0.1,0,0,-0.1,0,226)"/>
<path style="fill:none;stroke-width:8.50395;stroke-linecap:butt;stroke-linejoin:miter;stroke:rgb(0%,0%,0%);stroke-opacity:1;stroke-miterlimit:2.5;" d="M 312.109375 1634.453125 L 386.367188 1634.453125 " transform="matrix(0.1,0,0,-0.1,0,226)"/>
<path style="fill:none;stroke-width:8.50395;stroke-linecap:butt;stroke-linejoin:miter;stroke:rgb(0%,0%,0%);stroke-opacity:1;stroke-miterlimit:2.5;" d="M 312.109375 1684.0625 L 361.71875 1634.453125 " transform="matrix(0.1,0,0,-0.1,0,226)"/>
<path style="fill:none;stroke-width:8.50395;stroke-linecap:butt;stroke-linejoin:miter;stroke:rgb(0%,0%,0%);stroke-opacity:1;stroke-miterlimit:2.5;" d="M 343.828125 1652.03125 L 386.367188 1684.0625 " transform="matrix(0.1,0,0,-0.1,0,226)"/>
<path style="fill:none;stroke-width:8.50395;stroke-linecap:butt;stroke-linejoin:miter;stroke:rgb(0%,0%,0%);stroke-opacity:1;stroke-miterlimit:2.5;" d="M 297.929688 1726.601562 L 414.726562 1726.601562 " transform="matrix(0.1,0,0,-0.1,0,226)"/>
<path style="fill:none;stroke-width:8.50395;stroke-linecap:butt;stroke-linejoin:miter;stroke:rgb(0%,0%,0%);stroke-opacity:1;stroke-miterlimit:2.5;" d="M 297.929688 1730 L 414.726562 1730 " transform="matrix(0.1,0,0,-0.1,0,226)"/>
<path style="fill:none;stroke-width:8.50395;stroke-linecap:butt;stroke-linejoin:miter;stroke:rgb(0%,0%,0%);stroke-opacity:1;stroke-miterlimit:2.5;" d="M 297.929688 1705.3125 L 297.929688 1730 " transform="matrix(0.1,0,0,-0.1,0,226)"/>
<path style="fill:none;stroke-width:8.50395;stroke-linecap:butt;stroke-linejoin:miter;stroke:rgb(0%,0%,0%);stroke-opacity:1;stroke-miterlimit:2.5;" d="M 414.726562 1705.3125 L 414.726562 1730 " transform="matrix(0.1,0,0,-0.1,0,226)"/>
<path style="fill:none;stroke-width:8.50395;stroke-linecap:butt;stroke-linejoin:miter;stroke:rgb(0%,0%,0%);stroke-opacity:1;stroke-miterlimit:2.5;" d="M 4266.132812 427.1875 L 4266.132812 2160.859375 " transform="matrix(0.1,0,0,-0.1,0,226)"/>
<path style="fill:none;stroke-width:8.50395;stroke-linecap:butt;stroke-linejoin:miter;stroke:rgb(0%,0%,0%);stroke-opacity:1;stroke-miterlimit:2.5;" d="M 4266.132812 427.1875 L 4151.054688 427.1875 " transform="matrix(0.1,0,0,-0.1,0,226)"/>
<path style="fill:none;stroke-width:8.50395;stroke-linecap:butt;stroke-linejoin:miter;stroke:rgb(0%,0%,0%);stroke-opacity:1;stroke-miterlimit:2.5;" d="M 4266.132812 860.585938 L 4151.054688 860.585938 " transform="matrix(0.1,0,0,-0.1,0,226)"/>
<path style="fill:none;stroke-width:8.50395;stroke-linecap:butt;stroke-linejoin:miter;stroke:rgb(0%,0%,0%);stroke-opacity:1;stroke-miterlimit:2.5;" d="M 4266.132812 1294.023438 L 4151.054688 1294.023438 " transform="matrix(0.1,0,0,-0.1,0,226)"/>
<path style="fill:none;stroke-width:8.50395;stroke-linecap:butt;stroke-linejoin:miter;stroke:rgb(0%,0%,0%);stroke-opacity:1;stroke-miterlimit:2.5;" d="M 4266.132812 1727.421875 L 4151.054688 1727.421875 " transform="matrix(0.1,0,0,-0.1,0,226)"/>
<path style="fill:none;stroke-width:8.50395;stroke-linecap:butt;stroke-linejoin:miter;stroke:rgb(0%,0%,0%);stroke-opacity:1;stroke-miterlimit:2.5;" d="M 4266.132812 2160.859375 L 4151.054688 2160.859375 " transform="matrix(0.1,0,0,-0.1,0,226)"/>
<path style="fill:none;stroke-width:8.50395;stroke-linecap:butt;stroke-linejoin:miter;stroke:rgb(0%,0%,0%);stroke-opacity:1;stroke-miterlimit:2.5;" d="M 4266.132812 535.46875 L 4208.59375 535.46875 " transform="matrix(0.1,0,0,-0.1,0,226)"/>
<path style="fill:none;stroke-width:8.50395;stroke-linecap:butt;stroke-linejoin:miter;stroke:rgb(0%,0%,0%);stroke-opacity:1;stroke-miterlimit:2.5;" d="M 4266.132812 644.023438 L 4208.59375 644.023438 " transform="matrix(0.1,0,0,-0.1,0,226)"/>
<path style="fill:none;stroke-width:8.50395;stroke-linecap:butt;stroke-linejoin:miter;stroke:rgb(0%,0%,0%);stroke-opacity:1;stroke-miterlimit:2.5;" d="M 4266.132812 752.304688 L 4208.59375 752.304688 " transform="matrix(0.1,0,0,-0.1,0,226)"/>
<path style="fill:none;stroke-width:8.50395;stroke-linecap:butt;stroke-linejoin:miter;stroke:rgb(0%,0%,0%);stroke-opacity:1;stroke-miterlimit:2.5;" d="M 4266.132812 968.867188 L 4208.59375 968.867188 " transform="matrix(0.1,0,0,-0.1,0,226)"/>
<path style="fill:none;stroke-width:8.50395;stroke-linecap:butt;stroke-linejoin:miter;stroke:rgb(0%,0%,0%);stroke-opacity:1;stroke-miterlimit:2.5;" d="M 4266.132812 1077.460938 L 4208.59375 1077.460938 " transform="matrix(0.1,0,0,-0.1,0,226)"/>
<path style="fill:none;stroke-width:8.50395;stroke-linecap:butt;stroke-linejoin:miter;stroke:rgb(0%,0%,0%);stroke-opacity:1;stroke-miterlimit:2.5;" d="M 4266.132812 1185.742188 L 4208.59375 1185.742188 " transform="matrix(0.1,0,0,-0.1,0,226)"/>
<path style="fill:none;stroke-width:8.50395;stroke-linecap:butt;stroke-linejoin:miter;stroke:rgb(0%,0%,0%);stroke-opacity:1;stroke-miterlimit:2.5;" d="M 4266.132812 1402.304688 L 4208.59375 1402.304688 " transform="matrix(0.1,0,0,-0.1,0,226)"/>
<path style="fill:none;stroke-width:8.50395;stroke-linecap:butt;stroke-linejoin:miter;stroke:rgb(0%,0%,0%);stroke-opacity:1;stroke-miterlimit:2.5;" d="M 4266.132812 1510.859375 L 4208.59375 1510.859375 " transform="matrix(0.1,0,0,-0.1,0,226)"/>
<path style="fill:none;stroke-width:8.50395;stroke-linecap:butt;stroke-linejoin:miter;stroke:rgb(0%,0%,0%);stroke-opacity:1;stroke-miterlimit:2.5;" d="M 4266.132812 1619.140625 L 4208.59375 1619.140625 " transform="matrix(0.1,0,0,-0.1,0,226)"/>
<path style="fill:none;stroke-width:8.50395;stroke-linecap:butt;stroke-linejoin:miter;stroke:rgb(0%,0%,0%);stroke-opacity:1;stroke-miterlimit:2.5;" d="M 4266.132812 1835.703125 L 4208.59375 1835.703125 " transform="matrix(0.1,0,0,-0.1,0,226)"/>
<path style="fill:none;stroke-width:8.50395;stroke-linecap:butt;stroke-linejoin:miter;stroke:rgb(0%,0%,0%);stroke-opacity:1;stroke-miterlimit:2.5;" d="M 4266.132812 1944.296875 L 4208.59375 1944.296875 " transform="matrix(0.1,0,0,-0.1,0,226)"/>
<path style="fill:none;stroke-width:8.50395;stroke-linecap:butt;stroke-linejoin:miter;stroke:rgb(0%,0%,0%);stroke-opacity:1;stroke-miterlimit:2.5;" d="M 4266.132812 2052.578125 L 4208.59375 2052.578125 " transform="matrix(0.1,0,0,-0.1,0,226)"/>
<path style="fill:none;stroke-width:8.50395;stroke-linecap:butt;stroke-linejoin:miter;stroke:rgb(0%,0%,0%);stroke-opacity:1;stroke-miterlimit:2.5;" d="M 3830.46875 2160.859375 L 3825.351562 2139.296875 L 3799.296875 2041.796875 L 3785.664062 1987.65625 L 3770.9375 1933.515625 L 3749.6875 1879.101562 L 3720.195312 1814.179688 L 3678.242188 1738.203125 L 3604.84375 1651.757812 L 3542.734375 1608.398438 L 3446.640625 1565 L 3328.164062 1521.640625 L 3226.40625 1489.023438 L 3107.617188 1450.195312 L 2997.929688 1415.351562 L 2885.117188 1378.476562 L 2774.257812 1343.90625 L 2644.140625 1302.8125 L 2548.359375 1272.460938 L 2463.59375 1241.015625 L 2406.914062 1218.359375 L 2350.507812 1183.476562 L 2294.0625 1138.125 L 2237.382812 1083.984375 L 2175.3125 1023.046875 L 2118.90625 979.960938 L 2073.554688 953.867188 L 2034.140625 947.34375 L 1994.453125 949.609375 L 1949.375 960.390625 L 1892.695312 981.914062 L 1836.289062 1003.75 L 1779.609375 1027.578125 L 1723.203125 1051.367188 L 1666.796875 1075.195312 L 1638.4375 1090.195312 L 1610.078125 1109.765625 L 1582.03125 1135.859375 L 1553.671875 1166.171875 L 1525.3125 1203.046875 L 1497.265625 1248.671875 L 1480.273438 1289.765625 L 1463.242188 1333.125 L 1451.914062 1367.734375 L 1440.585938 1406.835938 L 1429.53125 1450.195312 L 1418.164062 1506.328125 L 1406.835938 1571.523438 L 1384.179688 1705.898438 L 1372.8125 1775.078125 L 1361.484375 1844.492188 L 1350.15625 1913.945312 L 1339.101562 1974.609375 L 1327.773438 2031.015625 " transform="matrix(0.1,0,0,-0.1,0,226)"/>
</g>
</svg>
